<svg width="100" height="100" viewBox="0 0 100 100" fill="none" xmlns="http://www.w3.org/2000/svg">
<path d="M70.6403 39.0553V31.0408V29.8428L69.4423 29.8468L61.4277 29.8753L61.4582 39.0858L70.6403 39.0553Z" fill="black"/>
<path d="M49.7524 60.3272C55.0277 60.3272 59.3223 56.0367 59.3223 50.7613C59.3223 48.68 58.6441 46.751 57.5091 45.1814C55.7729 42.7732 52.9444 41.1914 49.7524 41.1914C46.5604 41.1914 43.7359 42.7732 41.9957 45.1814C40.8607 46.751 40.1865 48.68 40.1865 50.7613C40.1865 56.0367 44.4771 60.3272 49.7524 60.3272Z" fill="black"/>
<path d="M50.002 0C22.3867 0 0 22.3826 0 49.998C0 77.6133 22.3867 100 50.002 100C77.6133 100 100 77.6133 100 49.998C100 22.3826 77.6113 0 50.002 0ZM76.9331 45.1815V67.4383C76.9331 73.2294 72.2182 77.9402 66.4271 77.9402H33.0755C27.2823 77.9402 22.5715 73.2294 22.5715 67.4383V45.1815V34.0867C22.5715 28.2935 27.2823 23.5827 33.0755 23.5827H66.4271C72.2182 23.5827 76.9331 28.2935 76.9331 34.0867V45.1815Z" fill="black"/>
<path d="M64.6148 50.7613C64.6148 58.9545 57.9486 65.6249 49.7513 65.6249C41.554 65.6249 34.8918 58.9545 34.8918 50.7613C34.8918 48.7856 35.2837 46.9074 35.9822 45.1814H27.8682V67.4381C27.8682 70.3093 30.2033 72.6444 33.0745 72.6444H66.4261C69.2973 72.6444 71.6324 70.3093 71.6324 67.4381V45.1814H63.5143C64.2189 46.9074 64.6148 48.7876 64.6148 50.7613Z" fill="black"/>
</svg>
